<svg xmlns="http://www.w3.org/2000/svg" viewBox="0 0 785.1 181.4">
  <title>FreshySites - Website Design horizontal tagline logo</title>
  <g>
    <path d="M169,23.2h55.8V37.7H185.3v25h31.2V77.2H185.3v37.9H169ZM366.5,78.9l-10-2.6c-3.6-.8-6.7-2.7-6.7-5.9s3.4-6.5,8.2-6.5,8.2,2.6,8.2,7h14.9c.1-14-12.5-19.5-23.5-19.5-13.6,0-23.3,8.6-23.3,18.3,0,7.9,3.7,15.4,17.7,19.1l8.2,2.1c4.7,1.1,7.4,2.7,7.4,6.2s-4,6.8-10.2,6.8-10.2-4-10.2-8.3H332.6c.3,13.4,12.7,20.8,25.1,20.8s25.4-6.6,25.4-19.3C383.1,91.4,380.5,82.5,366.5,78.9ZM427,51.4c-6.3,0-16.3,3.4-19.4,10.9V19.4H392.1v95.7h15.5V82.5c0-12,8.8-15.8,15.9-15.8s12.9,5,12.9,15v33.5h15.5v-35C451.9,62,443,51.4,427,51.4Zm59.1,40.9L470,52.8H453l24.8,58-14,34.7h16.3l38.7-92.7H502.1Zm77.4-30-10.9-2.9c-10.5-2.7-11.3-8.2-11.3-10.7,0-7.2,6.5-12,14.4-12S570,42.2,570,49.8h16.1c0-17.2-13.2-27.6-30-27.6S524.9,32.7,524.9,49c0,8,3.5,19.9,23.2,25l11.4,3.1c7.8,2.1,13.2,5.8,13.2,12.2s-6,12.6-15.3,12.6-17-6.6-17.1-13.6H524.2c0,15.5,13.2,28.1,32.8,28.1,18,0,32-11,32-27.7C589,74,578,66.3,563.5,62.3Zm35.9,52.8h15.4V52.8H599.4Zm52.3-85.3H636.2v23H625V65.2h11.2v49.9h15.5V65.2h13.2V52.8H651.7ZM768.5,78.9l-10-2.6c-3.6-.8-6.7-2.7-6.7-5.9s3.4-6.5,8.2-6.5,8.3,2.6,8.3,7h14.8c.1-14-12.4-19.5-23.5-19.5-13.6,0-23.2,8.6-23.2,18.3,0,7.9,3.6,15.4,17.6,19.1l8.2,2.1c4.7,1.1,7.4,2.7,7.4,6.2s-4,6.8-10.2,6.8-10.2-4-10.2-8.3H734.6c.3,13.4,12.7,20.8,25.1,20.8s25.4-6.6,25.4-19.3C785.1,91.4,782.5,82.5,768.5,78.9ZM269.7,53.5a24.9,24.9,0,0,0-10-2.1c-7.8,0-14.6,4.3-17.9,14.7V52.8H226.3v62.3h15.6V93.4c0-17.5,5.6-27.4,15.8-27.4h1.9A41,41,0,0,1,269.7,53.5ZM717.4,88.3h13.8a32.6,32.6,0,1,1-3-18.4,35.9,35.9,0,0,1,2,5.1L708.3,85.6,685.1,97a18.9,18.9,0,0,0,22.2,4.1A18.5,18.5,0,0,0,717.4,88.3Zm-37-1.1,32.5-15.8a18.6,18.6,0,0,0-22.1-4.2A19,19,0,0,0,680.4,87.2ZM313.5,88.3h13.8a32.6,32.6,0,1,1-3-18.4,52.7,52.7,0,0,1,1.9,5.1L304.4,85.6,281.2,97a19,19,0,0,0,32.3-8.7Zm-37.1-1.1,32.5-15.8a18.6,18.6,0,0,0-22.1-4.2A19,19,0,0,0,276.4,87.2ZM607.1,23.4c-5.1,0-9.4,3.7-9.4,8.8S602,41,607.1,41a9.1,9.1,0,0,0,9.3-8.7h0C616.4,27.2,612.3,23.4,607.1,23.4Z" style="fill: #00b140"/>
    <path d="M558.2,145.4l-9.1,26.9H546l-4.8-17-4.8,17h-3.1l-9.1-26.9H528l6.8,21.3,5-17.6h2.7l5.1,17.5,6.8-21.2Zm17.4,17.7c0,.6-.1,1.1-.1,1.6H560.6c.5,3.2,2.9,4.8,6,4.8a5.8,5.8,0,0,0,5.3-2.8l3,1.2a9.5,9.5,0,0,1-17.8-4.8v-.8a9.1,9.1,0,0,1,9.4-8.6C571.7,153.7,575.6,157.4,575.6,163.1Zm-3.5-1.4h0a5.1,5.1,0,0,0-5.6-4.8c-3.1,0-5.3,1.5-5.8,4.8Zm26.4,1.4c0,5.8-4.1,9.6-9.1,9.6a7.5,7.5,0,0,1-6.5-3.3v2.9h-3.4V144.1h3.4v12.8c1.2-2.1,3.7-3.2,6.5-3.2A9,9,0,0,1,598.5,163.1Zm-3.5,0v-.3a5.9,5.9,0,0,0-6-5.9,6.3,6.3,0,1,0,0,12.6h.3a6.1,6.1,0,0,0,5.7-6.4Zm15.1-1.1-2.7-.7c-1.2-.3-2.4-.9-2.4-2.2s1.2-2.4,3-2.4,2.9.9,2.9,2.3h3.3c0-3.7-3.2-5.3-6.3-5.3s-6.3,2.3-6.3,5.3,1.8,4.4,4.8,5.2l2.5.6c1.4.3,2.5,1,2.5,2.4s-1.3,2.5-3.6,2.5-3.6-1.3-3.7-2.8H601c.1,3.7,3.5,5.8,6.8,5.8s7-2.1,7-5.5S613.9,162.9,610.1,162Zm10.4-16.9h-.1a2.4,2.4,0,0,0,.1,4.8,2.4,2.4,0,0,0,2.4-2.4A2.5,2.5,0,0,0,620.5,145.1Zm-1.8,27.2h3.4V154.1h-3.4Zm14.1-25.1h-3.4v6.9h-3.3V157h3.3v15.3h3.4V157h3.9v-2.9h-3.9Zm23.8,15.9c0,.6-.1,1.1-.1,1.6H641.6c.5,3.2,2.9,4.8,6,4.8a5.8,5.8,0,0,0,5.3-2.8l3,1.2a9.5,9.5,0,0,1-17.8-4.8v-.8a9.1,9.1,0,0,1,9.4-8.6C652.7,153.7,656.6,157.4,656.6,163.1Zm-3.5-1.4h0a5.1,5.1,0,0,0-5.6-4.8c-3.1,0-5.3,1.5-5.8,4.8Zm41.3-2.8c0,7.6-4.5,13.4-12.2,13.4H671.8V145.4h10.5C689.9,145.4,694.4,151.3,694.4,158.9Zm-3.6,0c0-5.7-2.9-10.2-8.5-10.2h-6.9V169h6.9C687.9,169,690.8,164.7,690.8,158.9Zm25,4.2c0,.6-.1,1.1-.1,1.6H700.9c.5,3.2,2.8,4.8,6,4.8a5.8,5.8,0,0,0,5.3-2.8l3,1.2a9.5,9.5,0,0,1-17.8-4.8v-.7a9.1,9.1,0,0,1,9.4-8.7C712,153.7,715.8,157.4,715.8,163.1Zm-3.4-1.4h0a5.1,5.1,0,0,0-5.6-4.8c-3.1,0-5.3,1.5-5.8,4.8Zm15.7.3-2.7-.7c-1.2-.3-2.3-.9-2.3-2.2s1.1-2.4,2.9-2.4,2.9.9,2.9,2.3h3.3c0-3.7-3.2-5.3-6.3-5.3s-6.2,2.3-6.2,5.3,1.7,4.4,4.8,5.2l2.5.6c1.4.3,2.5,1,2.5,2.4s-1.4,2.5-3.7,2.5-3.6-1.3-3.6-2.8H719c.2,3.7,3.5,5.8,6.8,5.8s7-2.1,7-5.5S731.9,162.9,728.1,162Zm11.1-16.9h-.1a2.2,2.2,0,0,0-2.1,2.4,2.3,2.3,0,1,0,4.5-.1A2.3,2.3,0,0,0,739.2,145.1Zm-1.7,27.2h3.3V154.1h-3.3Zm22.9-18.2h3.4v15.4c0,8.6-3.9,11.9-9.9,11.9a9.5,9.5,0,0,1-8.2-4.9l2.9-1.5a6,6,0,0,0,5.3,3.2c4,0,6.5-2.3,6.5-8.4v-.4a7.1,7.1,0,0,1-6.4,3.3c-5.1,0-9.2-3.8-9.2-9.5s4.1-9.5,9.1-9.5c2.7,0,5.3,1.1,6.5,3.2Zm-6.2,15.4a6.3,6.3,0,0,0,6.3-6.3,6.3,6.3,0,0,0-6.3-6.3h-.3a6.1,6.1,0,0,0-5.7,6.3v.2a6.1,6.1,0,0,0,6,6.1Zm23.5-15.8c-2,0-4.9.9-6,3.2v-2.8h-3.4v18.2h3.4v-9.9c0-3.9,3-5.3,5.6-5.3s4.4,1.8,4.4,4.9v10.4h3.4V161.8C785.1,156.7,782.3,153.7,777.7,153.7Z" style="fill: #707372"/>
    <g>
      <path d="M116,20a67.9,67.9,0,1,0-.4,96h0a67.9,67.9,0,0,0,.4-96Zm-8.3,88a56.6,56.6,0,1,1,.2-80h.1a56.6,56.6,0,0,1-.3,80Z" style="fill: #00b140"/>
      <path d="M64.7,63.3a1.4,1.4,0,0,0,1.7-.9h0v-.3S54.2,26.4,49.6,20.9c-1.9-2.2-17.5,5.9-16,9.8C33.6,30.7,48.6,49.4,64.7,63.3Zm-18-20.9h0C44.9,36.6,63.8,60,63.8,60S48.4,48.1,46.7,42.4Zm5.8-7h0c.3-1.5,9.3,19.3,8.8,18.5S52.1,36.9,52.5,35.4ZM58.8,52C57,49.2,46.6,33.7,46.4,29.7S57.1,48.4,58.8,52ZM70.9,71.5a1.4,1.4,0,0,0-1.6,1h0v.3s14.2,35,19.2,40.2c2,2.1,17.1-6.8,15.4-10.7C103.9,102.3,87.8,84.5,70.9,71.5Zm6.6,12.1c0-3.9,13.8,23.4,13.8,23.4S77.5,87.5,77.5,83.6Zm8.1,6.3h0c.2-2.6,7.8,12.5,7.8,12.5S85.4,92.5,85.6,89.9ZM71.1,63.1a1.3,1.3,0,0,0,.9,1.7h.3c20.4-5.6,42-16.1,42-16.1,3-3-7.2-17.2-9.8-16C98,35.7,71.1,63.1,71.1,63.1Zm33.4-16h0c0,1.9-19.1,9.5-19.1,9.5S104.5,45.2,104.5,47.1Zm-1-9.3h0c-.8,3.8-21,19.7-21,19.7S104.4,33.9,103.5,37.8ZM97.4,54.6h-.1c-.5,1.1-19.2,5.7-19.2,5.7S97.8,53.5,97.4,54.6ZM64.9,70.4h-.2S37.9,100,35.3,107.1c-1.4,3.9,15.6,12.9,18.4,9.4,0,0,8.7-23,12.9-45A1.3,1.3,0,0,0,64.9,70.4Zm-12.8,43c-1.4-2,3.8-18.8,3.8-18.8S53.5,115.4,52.1,113.4Zm-1-14.1h0c-.8-1.2,8.3-16.1,8.3-16.1S51.9,100.5,51.1,99.3Zm-7.3,1.9h0c-1.2-1.9,19.6-25.6,19.6-25.6S45,103.1,43.8,101.2ZM64,70.1a1.4,1.4,0,0,0-.9-1.7h-.2s-37.6,13.3-43,17.9c-2.2,1.9,6.2,17.6,10.2,16C30.1,102.3,50.1,86.1,64,70.1Zm-18.6,10s-13.6,5.4-14.6,4.4S45.4,80.1,45.4,80.1ZM28.1,88.8c-.7-.6,18.5-8,18.5-8S28.8,89.5,28.1,88.8Zm20.4-8s-10.2,7.2-12,7S48.5,80.8,48.5,80.8ZM33.8,95.9C30.9,96,56.2,75,56.2,75S36.7,95.7,33.8,95.9Zm33-22.8-.2.2s-4,36.3-2.3,43.2c1.2,4.5,18.4,2.4,18.7-1.9,0,0-5.6-22.2-14.3-41.6A1.3,1.3,0,0,0,66.8,73.1Zm.9,9.5c.5-4.2.7,31.2.7,31.2S67.2,86.7,67.7,82.6Zm4.1,5.7c.5-9.4,4.7,26,4.7,26s-5.2-16.7-4.7-26Zm-1.3,9.1c.3-6.5,1.3,16.4,1.3,16.4s-1.5-9.9-1.3-16.4ZM62.9,65.9h.4a1.4,1.4,0,0,0,1.1-1.7c0-.1,0-.2-.1-.2S36.2,38.8,29.1,36.2c-3.9-1.4-12.7,14.7-9.2,17.5a314,314,0,0,0,30.9,9.5c-11.2-2.1-27.1-4.8-31.5-4s-4.1,19,0,19.6c0,0,23.3-4.2,43.3-11.2A1.4,1.4,0,0,0,62.9,65.9Zm-20-12.1h0s-5.2-4.7-6.3-6.3S52.1,58.3,53.3,60.4c0,0-16.1-7.4-17-9.5S42.9,53.8,42.9,53.8Zm7.4,13c-.7-.2-11-2.1-11.7-2.4S48.7,65.1,50.3,66.8Zm-1.7,1.7S35.2,71.6,34,70.3s14.5-1.9,14.5-1.9Zm-.4-.8h.1s-25.2.3-26.2-1.2S48.2,67.7,48.2,67.7Zm-23.9,7c-1.1-1.3,29-6.3,29-6.3S25.5,76,24.3,74.7Zm9.4-20.3c-1.5-2.4,25.8,10,25.8,10S35.2,56.7,33.7,54.4Zm83.2-.1c-7.6-.5-44.7,11.3-44.7,11.3a1.3,1.3,0,0,0,0,2c0,.1.1.1.1.2,21.9,5.1,45.8,6.4,45.8,6.4C122.4,73,121,54.5,116.9,54.3Zm-7.6,6.3c.3,1.2-29.8,5.5-29.8,5.5S108.9,59.4,109.3,60.6Zm-23.4,6s25.7,3.3,25.6,4.1S85.9,66.6,85.9,66.6Zm4.1-.3s22.3-4.6,22.9-2.6S90,66.3,90,66.3Zm26.2,12.2a300.4,300.4,0,0,0-44-9.7,1.4,1.4,0,0,0-1,1.7h0a.4.4,0,0,0,.1.3S100.8,94.4,108,96.5C112,97.7,119.8,81.1,116.2,78.5ZM79.1,72.9C75,68.3,105.7,88.6,107,89.6S83.3,77.6,79.1,72.9Zm15.1,3.7c3.4-.7,15.9,7,15.9,7S90.8,77.4,94.2,76.6ZM69,62.1a1.4,1.4,0,0,0,1.6.5C85.5,47.5,98.5,28.5,98.5,28.5c1.2-4-15.1-10.6-16.8-8.2S74,41.6,71.1,52.5c2-11.1,5-28.8,4.3-33.5s-18.1-4-18.8.2c0,0,3.7,22.7,10.6,42.7A1.4,1.4,0,0,0,69,62.1ZM91.4,32c1.3,1.7-17.5,24.8-17.5,24.8S90.1,30.3,91.4,32Zm-9.6,3.5c.6.9-9,21.9-9,21.9S81.2,34.7,81.8,35.5ZM61.7,25.8c1.6-1.5,5,28,5,28S60.1,27.2,61.7,25.8Zm6.3-.2h0c1.4-.8,1.5,20.8,1.5,20.8S66.7,26.4,68,25.6Zm-.7,14.5c1.1-.9.3,15,.3,15s-1.4-14-.3-15Z" style="fill: #dbe442"/>
    </g>
  </g>
</svg>
